Patient4_TMGait_0pt4_03_right_16_GRF.mot
version=1
nRows=71
nColumns=19
inDegrees=no
endheader
time	F1x	F1y	F1z	M1x	M1y	M1z	F2x	F2y	F2z	M2x	M2y	M2z	EC1x	EC1y	EC1z	EC2x	EC2y	EC2z
20.11	2.7999	756.7854	56.5425	-239.8399	-59.6917	815.0663	-0.18214	-15.6142	3.8852	-3.8363	-4.4218	-19.1712	-0.0592	0.0182	-0.0073	-0.0462	0.0165	0.9585
20.1237	2.3063	745.3683	59.1597	-236.6656	-61.4458	800.3893	-0.32275	-9.4652	2.5744	-2.2114	-2.8537	-11.6394	-0.0592	0.0182	-0.0073	-0.0462	0.0165	0.9585
20.1374	2.6919	735.2517	60.5651	-234.1213	-61.7431	786.2252	-0.42573	-4.3263	1.4477	-0.84038	-1.5198	-5.3584	-0.0592	0.0182	-0.0073	-0.0462	0.0165	0.9585
20.1511	4.0159	727.7457	60.7283	-232.6334	-60.5741	774.0161	-0.48896	-0.4568	0.57868	0.20258	-0.49873	-0.6368	-0.0592	0.0182	-0.0073	-0.0462	0.0165	0.9585
20.1649	6.2118	723.6634	59.8469	-232.4513	-58.1701	764.7249	-0.54131	2.2034	-0.027808	0.92832	0.21618	2.6119	-0.0592	0.0182	-0.0073	-0.0462	0.0165	0.9585
20.1786	9.1478	723.2475	58.291	-233.6219	-54.9291	758.7339	-0.57592	3.8429	-0.41254	1.3826	0.67047	4.6099	-0.0592	0.0182	-0.0073	-0.0462	0.0165	0.9585
20.1923	12.7037	726.2185	56.4131	-236.0078	-51.2202	755.8684	-0.61677	4.6928	-0.6265	1.621	0.9277	5.6429	-0.0592	0.0182	-0.0073	-0.0462	0.0165	0.9585
20.206	16.7745	731.8873	54.5363	-239.3266	-47.3764	755.5202	-0.68213	4.9606	-0.72037	1.6929	1.0551	5.9684	-0.0592	0.0182	-0.0073	-0.0462	0.0165	0.9585
20.2197	21.2254	739.3213	52.9058	-243.2092	-43.6651	756.8395	-0.76458	4.7988	-0.74572	1.6327	1.1137	5.7671	-0.0592	0.0182	-0.0073	-0.0462	0.0165	0.9585
20.2334	25.8983	747.5325	51.6806	-247.2651	-40.2854	758.9256	-0.88003	4.3084	-0.74072	1.4603	1.1531	5.1735	-0.0592	0.0182	-0.0073	-0.0462	0.0165	0.9585
20.2471	30.59	755.6249	50.95	-251.1365	-37.389	761.0017	-1.0109	3.5096	-0.73444	1.1731	1.2033	4.2116	-0.0592	0.0182	-0.0073	-0.0462	0.0165	0.9585
20.2609	35.0994	762.9005	50.7011	-254.5416	-35.0369	762.5069	-1.1478	2.4075	-0.73978	0.76378	1.2743	2.8908	-0.0592	0.0182	-0.0073	-0.0462	0.0165	0.9585
20.2746	39.254	768.883	50.8858	-257.2838	-33.2576	763.1014	-1.2543	1	-0.76183	0.22555	1.3558	1.2056	-0.0592	0.0182	-0.0073	-0.0462	0.0165	0.9585
20.2883	42.9215	773.3472	51.4052	-259.2563	-32.0143	762.6678	-1.2656	-0.68559	-0.78489	-0.43204	1.4034	-0.8189	-0.0592	0.0182	-0.0073	-0.0462	0.0165	0.9585
20.302	46.0139	776.2335	52.1904	-260.4175	-31.2789	761.2235	-1.1163	-2.5297	-0.78354	-1.1605	1.3543	-3.0381	-0.0592	0.0182	-0.0073	-0.0462	0.0165	0.9585
20.3157	48.4833	777.5206	53.1863	-260.7504	-31.0186	758.8062	-0.68157	-4.2748	-0.71448	-1.8513	1.1089	-5.1533	-0.0592	0.0182	-0.0073	-0.0462	0.0165	0.9585
20.3294	50.338	777.149	54.3798	-260.2339	-31.2185	755.393	0.16017	-5.4404	-0.52374	-2.3083	0.55744	-6.5857	-0.0592	0.0182	-0.0073	-0.0462	0.0165	0.9585
20.3431	51.6357	775.045	55.7495	-258.8548	-31.8386	750.9137	1.5341	-5.2827	-0.13641	-2.2297	-0.43099	-6.454	-0.0592	0.0182	-0.0073	-0.0462	0.0165	0.9585
20.3569	52.4679	771.2045	57.2938	-256.634	-32.848	745.3484	3.5516	-2.7331	0.52696	-1.1889	-1.9823	-3.5027	-0.0592	0.0182	-0.0073	-0.0462	0.0165	0.9585
20.3706	52.9651	765.7325	58.9823	-253.6429	-34.1701	738.7421	6.2391	3.6037	1.5388	1.3654	-4.1808	3.9206	-0.0592	0.0182	-0.0073	-0.0462	0.0165	0.9585
20.3843	53.2825	758.8031	60.7621	-249.9878	-35.7002	731.1882	9.4805	15.3103	2.9342	6.0604	-7.0099	17.6833	-0.0592	0.0182	-0.0073	-0.0462	0.0165	0.9585
20.398	53.5681	750.5071	62.4919	-245.7611	-37.2507	722.686	12.8917	33.9472	4.6674	13.509	-10.2577	39.6372	-0.0592	0.0182	-0.0073	-0.0462	0.0165	0.9585
20.4117	53.9416	740.6608	63.9883	-240.9766	-38.6086	712.9582	15.737	60.5883	6.5668	24.1274	-13.4287	71.0701	-0.0592	0.0182	-0.0073	-0.0462	0.0165	0.9585
20.4254	54.4306	728.6771	64.9734	-235.5282	-39.499	701.35	16.7994	95.135	8.267	37.862	-15.6213	111.9128	-0.0592	0.0182	-0.0073	-0.0462	0.0165	0.9585
20.4391	54.9704	713.5503	65.1546	-229.1829	-39.6649	686.8186	14.474	135.5453	9.1981	53.879	-15.5605	159.8221	-0.0592	0.0182	-0.0073	-0.0462	0.0165	0.9585
20.4529	55.4061	694.0677	64.2451	-221.6412	-38.8845	668.1445	8.1423	177.986	8.6073	70.601	-12.1652	210.3858	-0.0592	0.0182	-0.0073	-0.0462	0.0165	0.9585
20.4666	55.5356	669.1608	62.0981	-212.6296	-37.0772	644.2539	-0.80651	217.9562	6.1661	86.1902	-5.633	258.2983	-0.0592	0.0182	-0.0073	-0.0462	0.0165	0.9585
20.4803	55.1593	638.0505	58.7906	-201.9307	-34.3732	614.3644	-10.4028	252.1443	2.034	99.3295	3.0385	299.4631	-0.0592	0.0182	-0.0073	-0.0462	0.0165	0.9585
20.494	54.0818	600.363	54.5482	-189.4178	-31.0389	578.1272	-19.4673	280.733	-3.1062	110.0991	12.6101	333.9339	-0.0592	0.0182	-0.0073	-0.0462	0.0165	0.9585
20.5077	52.1874	556.2808	49.6538	-175.1145	-27.3741	535.7371	-27.4709	306.5911	-8.604	119.65	22.1424	365.0052	-0.0592	0.0182	-0.0073	-0.0462	0.0165	0.9585
20.5214	49.4036	506.5769	44.3147	-159.22	-23.5924	487.9636	-34.2616	333.2366	-13.9678	129.3943	31.0356	396.7609	-0.0592	0.0182	-0.0073	-0.0462	0.0165	0.9585
20.5351	45.6857	452.468	38.6945	-142.0715	-19.853	435.997	-39.7275	363.4784	-19.0115	140.4602	39.0474	432.3945	-0.0592	0.0182	-0.0073	-0.0462	0.0165	0.9585
20.5489	41.0239	395.4829	32.9289	-124.1066	-16.2734	381.3119	-43.7727	398.975	-23.8687	153.5025	46.3022	473.7142	-0.0592	0.0182	-0.0073	-0.0462	0.0165	0.9585
20.5626	35.4414	337.3864	27.2371	-105.8379	-13.0343	325.6172	-46.4865	440.2023	-28.8609	168.6937	53.1931	521.2081	-0.0592	0.0182	-0.0073	-0.0462	0.0165	0.9585
20.5763	29.0815	280.1401	21.842	-87.8515	-10.2863	270.7729	-48.0744	486.4421	-34.2943	185.7441	60.1356	574.0293	-0.0592	0.0182	-0.0073	-0.0462	0.0165	0.9585
20.59	22.2222	225.8051	16.9766	-70.7753	-8.1506	218.7336	-48.88	535.93	-40.2987	203.9719	67.3892	630.1789	-0.0592	0.0182	-0.0073	-0.0462	0.0165	0.9585
20.6037	15.3149	176.303	12.7986	-55.208	-6.6322	171.296	-49.2904	586.2862	-46.7146	222.4808	74.9074	686.9742	-0.0592	0.0182	-0.0073	-0.0462	0.0165	0.9585
20.6174	8.8642	133.0878	9.4066	-41.6103	-5.667	129.8079	-49.6074	635.1308	-53.1224	240.3948	82.3299	741.7299	-0.0592	0.0182	-0.0073	-0.0462	0.0165	0.9585
20.6311	3.3045	96.8754	6.7797	-30.2179	-5.1006	94.9323	-50.0202	680.3707	-59.0512	256.953	89.1913	792.091	-0.0592	0.0182	-0.0073	-0.0462	0.0165	0.9585
20.6449	-1.0731	67.6241	4.8077	-21.0275	-4.7402	66.6401	-50.5522	720.251	-64.1038	271.5206	95.0506	836.0657	-0.0592	0.0182	-0.0073	-0.0462	0.0165	0.9585
20.6586	-4.1364	44.7517	3.354	-13.859	-4.4157	44.4109	-51.1133	753.4715	-68.0474	283.6235	99.6065	872.1808	-0.0592	0.0182	-0.0073	-0.0462	0.0165	0.9585
20.6723	-5.8436	27.4374	2.28	-8.4514	-3.9912	27.4873	-51.5551	779.1944	-70.7908	292.9538	102.699	899.4929	-0.0592	0.0182	-0.0073	-0.0462	0.0165	0.9585
20.686	-6.2648	14.8331	1.4832	-4.5319	-3.4016	15.0927	-51.7274	797.0199	-72.3783	299.3613	104.3184	917.5653	-0.0592	0.0182	-0.0073	-0.0462	0.0165	0.9585
20.6997	-5.6422	6.1679	0.88935	-1.8521	-2.6633	6.5124	-51.494	806.9887	-72.928	302.8559	104.5533	926.4654	-0.0592	0.0182	-0.0073	-0.0462	0.0165	0.9585
20.7134	-4.4619	0.75183	0.48153	-0.1892	-1.9191	1.1027	-50.7349	809.5843	-72.6166	303.6129	103.5642	926.7577	-0.0592	0.0182	-0.0073	-0.0462	0.0165	0.9585
20.7271	-3.1453	-2.1551	0.23225	0.6915	-1.281	-1.8243	-49.3928	805.7749	-71.6153	301.9919	101.5301	919.5602	-0.0592	0.0182	-0.0073	-0.0462	0.0165	0.9585
20.7409	-1.9352	-3.305	0.10414	1.0261	-0.79173	-2.9896	-47.4451	797.0127	-70.0847	298.5353	98.6374	906.5364	-0.0592	0.0182	-0.0073	-0.0462	0.0165	0.9585
20.7546	-0.9518	-3.3511	0.057633	1.0175	-0.45081	-3.0452	-44.9326	785.1007	-68.1828	293.9154	95.095	889.7435	-0.0592	0.0182	-0.0073	-0.0462	0.0165	0.9585
20.7683	-0.23401	-2.7856	0.058748	0.81962	-0.23773	-2.4838	-41.966	771.9359	-66.1012	288.8384	91.1696	871.3418	-0.0592	0.0182	-0.0073	-0.0462	0.0165	0.9585
20.782	0.23859	-1.9619	0.086581	0.54469	-0.12452	-1.6668	-38.6985	759.2821	-64.0347	283.9598	87.1429	853.3255	-0.0592	0.0182	-0.0073	-0.0462	0.0165	0.9585
20.7957	0.50321	-1.097	0.12373	0.26353	-0.079114	-0.80998	-35.3011	748.6277	-62.1498	279.8324	83.2675	837.3657	-0.0592	0.0182	-0.0073	-0.0462	0.0165	0.9585
20.8094	0.61339	-0.31975	0.16087	0.017034	-0.074973	-0.052729	-31.8926	741.0676	-60.5537	276.8652	79.7106	824.6588	-0.0592	0.0182	-0.0073	-0.0462	0.0165	0.9585
20.8231	0.61844	0.31171	0.18976	-0.17648	-0.09241	0.54212	-28.5418	737.2229	-59.2965	275.2929	76.554	815.8611	-0.0592	0.0182	-0.0073	-0.0462	0.0165	0.9585
20.8369	0.55246	0.7768	0.20097	-0.31097	-0.1159	0.96203	-25.2588	737.1839	-58.3861	275.1551	73.8075	811.0375	-0.0592	0.0182	-0.0073	-0.0462	0.0165	0.9585
20.8506	0.45344	1.0583	0.20384	-0.3831	-0.14848	1.1958	-22.0221	740.5322	-57.7851	276.2994	71.4207	809.7086	-0.0592	0.0182	-0.0073	-0.0462	0.0165	0.9585
20.8643	0.33911	1.1534	0.20139	-0.39315	-0.18799	1.2469	-18.8159	746.4133	-57.4192	278.4046	69.3037	810.9535	-0.0592	0.0182	-0.0073	-0.0462	0.0165	0.9585
20.878	0.21774	1.0376	0.21337	-0.33316	-0.24603	1.085	-15.6164	753.6448	-57.184	281.0265	67.3321	813.5186	-0.0592	0.0182	-0.0073	-0.0462	0.0165	0.9585
20.8917	0.091574	0.67914	0.23979	-0.19264	-0.31929	0.66582	-12.4154	760.906	-56.9753	283.6683	65.3931	816.0259	-0.0592	0.0182	-0.0073	-0.0462	0.0165	0.9585
20.9054	-0.039161	0.038748	0.29397	0.041905	-0.41735	-0.062369	-9.1988	766.9328	-56.6962	285.8508	63.3896	817.1762	-0.0592	0.0182	-0.0073	-0.0462	0.0165	0.9585
20.9191	-0.15895	-0.92529	0.36798	0.38491	-0.53034	-1.1634	-5.953	770.7001	-56.2865	287.1806	61.2651	815.9451	-0.0592	0.0182	-0.0073	-0.0462	0.0165	0.9585
20.9329	-0.25327	-2.221	0.45333	0.83961	-0.64779	-2.6584	-2.6636	771.5779	-55.709	287.4093	58.99	811.7401	-0.0592	0.0182	-0.0073	-0.0462	0.0165	0.9585
20.9466	-0.27641	-3.7862	0.52853	1.3851	-0.73481	-4.4885	0.69345	769.3941	-54.9745	286.4572	56.581	804.4467	-0.0592	0.0182	-0.0073	-0.0462	0.0165	0.9585
20.9603	-0.16684	-5.4563	0.55622	1.9637	-0.72677	-6.4547	4.1199	764.4155	-54.1471	284.4052	54.1107	794.4174	-0.0592	0.0182	-0.0073	-0.0462	0.0165	0.9585
20.974	0.15471	-6.9012	0.48359	2.4572	-0.53172	-8.1649	7.6146	757.2794	-53.3315	281.473	51.6888	782.3812	-0.0592	0.0182	-0.0073	-0.0462	0.0165	0.9585
20.9877	0.79157	-7.5446	0.238	2.6613	-0.028816	-8.953	11.1449	748.9121	-52.647	277.9939	49.4417	769.3521	-0.0592	0.0182	-0.0073	-0.0462	0.0165	0.9585
21.0014	1.8495	-6.5341	-0.26349	2.275	0.92155	-7.8225	14.6712	740.3849	-52.2014	274.3646	47.4808	756.4726	-0.0592	0.0182	-0.0073	-0.0462	0.0165	0.9585
21.0151	3.4265	-2.7272	-1.1107	0.88833	2.4658	-3.4385	18.1679	732.721	-52.0823	270.9722	45.8898	744.8082	-0.0592	0.0182	-0.0073	-0.0462	0.0165	0.9585
21.0289	5.548	5.2747	-2.3779	-1.9975	4.708	5.8487	21.5805	726.6493	-52.3356	268.0992	44.7216	735.1225	-0.0592	0.0182	-0.0073	-0.0462	0.0165	0.9585
21.0426	8.1316	18.9883	-4.0967	-6.9167	7.6562	21.8247	24.8153	722.3576	-52.9527	265.8325	43.99	727.6311	-0.0592	0.0182	-0.0073	-0.0462	0.0165	0.9585
21.0563	10.9025	39.7165	-6.205	-14.3225	11.1333	46.0397	27.7322	719.3987	-53.8451	264.0284	43.6485	721.9143	-0.0592	0.0182	-0.0073	-0.0462	0.0165	0.9585
21.07	13.2934	68.042	-8.4883	-24.4049	14.672	79.2162	30.1483	716.6966	-54.8396	262.3142	43.5831	716.9252	-0.0592	0.0182	-0.0073	-0.0462	0.0165	0.9585
